<svg xmlns="http://www.w3.org/2000/svg" id="OliveGroup_White-CYMK" width="100" height="25.146" viewBox="0 0 100 25.146"><path id="Path_36" data-name="Path 36" d="M269.556,196.37l-.016,4.863,15.027.047.016-4.862-9.76-.031Z" transform="translate(-240.908 -176.668)"></path><rect id="Rectangle_3071" data-name="Rectangle 3071" width="4.862" height="10.681" transform="matrix(0.003, -1, 1, 0.003, 89.242, 24.756)"></rect><rect id="Rectangle_3072" data-name="Rectangle 3072" width="11.955" height="5.268" transform="matrix(0.003, -1, 1, 0.003, 47.22, 12.67)"></rect><rect id="Rectangle_3073" data-name="Rectangle 3073" width="11.955" height="5.268" transform="matrix(0.003, -1, 1, 0.003, 47.182, 24.623)"></rect><rect id="Rectangle_3074" data-name="Rectangle 3074" width="19.046" height="5.268" transform="translate(28.571 19.669) rotate(-90)"></rect><path id="Path_37" data-name="Path 37" d="M514.968,30.717l-5.6-.017,9.341,23.938h0l5.6.017Z" transform="translate(-453.295 -29.956)"></path><rect id="Rectangle_3075" data-name="Rectangle 3075" width="4.862" height="10.088" transform="translate(88.978 14.999) rotate(-90)"></rect><rect id="Rectangle_3076" data-name="Rectangle 3076" width="4.862" height="10.681" transform="matrix(0.003, -1, 1, 0.003, 89.304, 5.712)"></rect><path id="Path_38" data-name="Path 38" d="M753.65,31.47l-.03,9.32,5.267.017.014-4.458.016-4.862Z" transform="translate(-669.595 -30.637)"></path><path id="Path_39" data-name="Path 39" d="M753.21,127.508l5.268.017.015-4.862.016-4.863.015-4.862-5.267-.017Z" transform="translate(-669.232 -102.767)"></path><path id="Path_40" data-name="Path 40" d="M629.278,51.73l8.25-20.753-5.6-.017L626.5,44.618Z" transform="translate(-557.021 -30.186)"></path><path id="Path_41" data-name="Path 41" d="M25.739,41.118A7.536,7.536,0,0,1,36.253,30.6l3.578-3.578A12.559,12.559,0,0,0,22.16,44.7Z" transform="translate(-19.329 -24.194)"></path><path id="Path_42" data-name="Path 42" d="M73.961,68.585a7.536,7.536,0,0,1-10.493,10.49l-3.587,3.59A12.559,12.559,0,0,0,77.548,65Z" transform="translate(-55.24 -60.331)"></path></svg>